<?xml version="1.0" encoding="utf-8"?>
<!-- Generator: Adobe Illustrator 18.0.0, SVG Export Plug-In . SVG Version: 6.00 Build 0)  -->
<!DOCTYPE svg PUBLIC "-//W3C//DTD SVG 1.1//EN" "http://www.w3.org/Graphics/SVG/1.1/DTD/svg11.dtd">
<svg version="1.1" id="Layer_1" xmlns="http://www.w3.org/2000/svg" xmlns:xlink="http://www.w3.org/1999/xlink" x="0px" y="0px"
	 viewBox="0 0 205.7 191.3" enable-background="new 0 0 205.7 191.3" xml:space="preserve">
<path fill="#79BD43" d="M157.6,101.4c-0.1,0-0.2,0-0.4,0c-0.6-4.9,0.6-9.8-0.8-14.7c-0.3-1-0.4-1.9-0.8-2.8c-0.2-0.5-0.4-1-0.5-1.5
	c-0.3-0.8-0.6-1.6-1-2.3c-1-1.7-1.8-3.3-3-4.9c-3.2-4.4-7.1-8.4-11.4-11.9c0,0-26.5-17.7-46.9,2.8c0,0-14.4,12.1-12.7,35.4
	c0,0,6.7,35.2,41.1,38.3c1.2,0.1,2.6,0.1,3.8,0.1c2.6,0,5.4,0.2,8,0.2c1.7,0,3.5,0,5.2,0c4.5,0,9.3-1.3,13.7-2.3
	c8.1-1.8,15.2-5.2,22.2-9.5c5.1-3.2,9.9-7,13.5-11.7c1.4-1.8,3-3.9,4.5-5.6c0,0,15.7-25.5,12.3-41.3c0,0,10.8,70.9-31,97.4
	c0,0-57.5,38.4-103.8,4.7c0,0-41.8-25.5-41.1-71.8c0.7-46.3,28.8-71.5,28.8-71.5s7.5-11.8,42.7-21.4c0.7-0.2,1.4-0.4,2.1-0.6
	c0,0-17.9-7.5-19.8-4.3c0,0,85.1-18.7,95.2,47.8c0,0,4.1,12.2-6.3,26.9c-0.8,1.2,0.8,8.5,0.4,10.4
	C170.4,93.8,164.7,100.9,157.6,101.4z"/>
<path fill="#ED1B33" stroke="#ED1B33" stroke-width="1.4649" stroke-miterlimit="10" d="M86.5,11.5C86.5,11.5,86.5,11.5,86.5,11.5
	C35.5,26,28.6,90.4,28.6,90.4s-5.6,28.4,12.3,59.3c17.9,30.9,54.9,40.9,54.9,40.9c-5.6-1.5-11.3-2.3-16.8-4
	c-4.8-1.5-9.5-3.2-14.1-5.3c-7.4-3.4-14.4-7.5-20.7-12.6c-5.2-4.2-10-9-13.9-14.4c-3.1-4.3-6.4-8.5-9.1-13c-1.7-2.9-3.1-5.9-4.2-9
	c-2.3-6.4-3.6-13.2-4.3-19.9c-1.2-11-1.1-22.5,0.5-33.5C25.7,24.1,75.4,13.3,85,11.8c1.6-0.3,3.1-0.4,4.6-1c2.1-0.8,4.1-0.9,6.2-1.7
	"/>
<path fill="#ED1B33" d="M97.1,8.1"/>
<path fill="none" stroke="#030303" stroke-width="1.4649" stroke-miterlimit="10" d="M6.9,67.1"/>
<path fill="none" stroke="#030303" stroke-width="2.6493" stroke-miterlimit="10" d="M68.5-47.8"/>
<path fill="#FFCE04" stroke="#FFCE04" stroke-width="1.4649" stroke-miterlimit="10" d="M97.1,8.1c0,0-55-4.6-85.1,46
	c0,0-23,47.4-3.2,81.5c0,0,8.2,14,17.9,26.6c0,0-18.6-21.2-14.7-71.5C12,90.8,14.8,21,97.1,8.1z"/>
<path fill="#ED1B33" d="M193.9,80.8c2,13.1-3.2,26.9-9,38.5c-0.2,0.4-0.4,0.8-0.6,1.3l9.8-12.2C205.3,93.7,193.9,80.8,193.9,80.8z"
	/>
</svg>
